<svg width="92" height="16" viewBox="0 0 92 16" fill="none" xmlns="http://www.w3.org/2000/svg">
<path d="M8.4 15.24C6.32 15.24 4.53333 14.5333 3.04 13.12C1.54667 11.6933 0.8 9.94 0.8 7.86C0.8 5.76667 1.45333 4.01333 2.76 2.6C4.06667 1.17333 5.74 0.459999 7.78 0.459999C9.38 0.459999 11 0.726666 12.64 1.26L12.38 2.06C10.78 1.58 9.24667 1.34 7.78 1.34C6.03333 1.34 4.60667 1.96667 3.5 3.22C2.39333 4.47333 1.84 6.00667 1.84 7.82C1.84 9.63333 2.48 11.18 3.76 12.46C5.05333 13.7267 6.6 14.36 8.4 14.36C9.97333 14.36 11.3333 14.12 12.48 13.64L12.78 14.32C12.2733 14.6133 11.6067 14.84 10.78 15C9.96667 15.16 9.17333 15.24 8.4 15.24ZM16.3023 15V2.02H17.2223V15H16.3023ZM22.025 15V1.94H22.465L30.985 11.74C31.2917 12.0867 31.5717 12.4333 31.825 12.78C32.0917 13.1133 32.2317 13.2867 32.245 13.3C32.2183 12.98 32.205 12.3533 32.205 11.42V2.02H33.125V15.08H32.685L24.005 5.12L22.905 3.78C22.9317 4.04667 22.945 4.67333 22.945 5.66V15H22.025ZM37.9234 15V1.94H38.3634L46.8834 11.74C47.1901 12.0867 47.4701 12.4333 47.7234 12.78C47.9901 13.1133 48.1301 13.2867 48.1434 13.3C48.1168 12.98 48.1034 12.3533 48.1034 11.42V2.02H49.0234V15.08H48.5834L39.9034 5.12L38.8034 3.78C38.8301 4.04667 38.8434 4.67333 38.8434 5.66V15H37.9234ZM53.8219 15V2.02H59.8819V2.82H54.7419V7.54H59.3819V8.32H54.7419V14.16H60.0819V15H53.8219ZM70.7633 14.26H70.2233L66.0433 4.14C65.8033 3.58 65.6099 3.08667 65.4633 2.66L65.2633 4.18L63.6233 15H62.6433L65.0033 0.58H65.5633L70.0233 11.18C70.2499 11.6733 70.4299 12.14 70.5633 12.58C70.6033 12.4333 70.8099 11.9733 71.1833 11.2L76.1633 0.58H76.7033L78.8833 15H77.8833L76.3233 4.14C76.2166 3.46 76.1633 2.94667 76.1633 2.6C76.1499 2.61333 76.1166 2.68 76.0633 2.8C76.0233 2.90667 75.9433 3.09333 75.8233 3.36C75.7166 3.61333 75.6033 3.88 75.4833 4.16L70.7633 14.26ZM83.2119 10.5L81.3519 15H80.4119L85.8519 1.94H86.3919L91.8719 15H90.8519L88.9719 10.5H83.2119ZM86.0719 3.42C85.8719 4.02 85.6919 4.52 85.5319 4.92L83.5319 9.72H88.6519L86.6719 4.94C86.3652 4.19333 86.1652 3.68667 86.0719 3.42Z" fill="#657AEF"/>
<path d="M3.04 13.12L2.34921 13.8431L2.35262 13.8463L3.04 13.12ZM2.76 2.6L3.49428 3.27886L3.49744 3.27541L2.76 2.6ZM12.64 1.26L13.591 1.56909L13.9001 0.618226L12.9493 0.309022L12.64 1.26ZM12.38 2.06L12.0927 3.01783L13.0289 3.2987L13.331 2.36909L12.38 2.06ZM3.5 3.22L2.7504 2.55811H2.7504L3.5 3.22ZM3.76 12.46L3.05286 13.1671L3.0603 13.1744L3.76 12.46ZM12.48 13.64L13.3949 13.2364L12.9989 12.3387L12.0939 12.7176L12.48 13.64ZM12.78 14.32L13.281 15.1854L14.0567 14.7364L13.6949 13.9164L12.78 14.32ZM10.78 15L10.59 14.0182L10.587 14.0188L10.78 15ZM8.4 14.24C6.57238 14.24 5.03262 13.629 3.72739 12.3937L2.35262 13.8463C4.03405 15.4377 6.06762 16.24 8.4 16.24V14.24ZM3.73078 12.3969C2.43653 11.1605 1.8 9.66907 1.8 7.86H-0.2C-0.2 10.2109 0.656801 12.2262 2.34922 13.8431L3.73078 12.3969ZM1.8 7.86C1.8 5.99433 2.37407 4.49051 3.49427 3.27886L2.02573 1.92114C0.532599 3.53616 -0.2 5.539 -0.2 7.86H1.8ZM3.49744 3.27541C4.60336 2.06793 6.00323 1.46 7.78 1.46V-0.540001C5.47677 -0.540001 3.52998 0.278733 2.02256 1.92459L3.49744 3.27541ZM7.78 1.46C9.26711 1.46 10.7828 1.7076 12.3307 2.21098L12.9493 0.309022C11.2172 -0.254265 9.49289 -0.540001 7.78 -0.540001V1.46ZM11.689 0.950913L11.429 1.75091L13.331 2.36909L13.591 1.56909L11.689 0.950913ZM12.6673 1.10217C10.9868 0.598019 9.35642 0.339999 7.78 0.339999V2.34C9.13691 2.34 10.5732 2.56198 12.0927 3.01783L12.6673 1.10217ZM7.78 0.339999C5.76111 0.339999 4.05632 1.07912 2.7504 2.55811L4.24961 3.88188C5.15701 2.85422 6.30556 2.34 7.78 2.34V0.339999ZM2.7504 2.55811C1.4682 4.01024 0.84 5.7852 0.84 7.82H2.84C2.84 6.22813 3.31847 4.93642 4.24961 3.88188L2.7504 2.55811ZM0.84 7.82C0.84 9.89803 1.58499 11.6992 3.05289 13.1671L4.46711 11.7529C3.37501 10.6608 2.84 9.36864 2.84 7.82H0.84ZM3.0603 13.1744C4.53933 14.623 6.33672 15.36 8.4 15.36V13.36C6.86328 13.36 5.56733 12.8304 4.4597 11.7456L3.0603 13.1744ZM8.4 15.36C10.072 15.36 11.5694 15.1053 12.8661 14.5624L12.0939 12.7176C11.0973 13.1347 9.87465 13.36 8.4 13.36V15.36ZM11.5651 14.0436L11.8651 14.7236L13.6949 13.9164L13.3949 13.2364L11.5651 14.0436ZM12.279 13.4546C11.901 13.6734 11.351 13.8709 10.59 14.0182L10.97 15.9818C11.8624 15.8091 12.6457 15.5533 13.281 15.1854L12.279 13.4546ZM10.587 14.0188C9.8327 14.1672 9.10409 14.24 8.4 14.24V16.24C9.24258 16.24 10.1006 16.1528 10.973 15.9812L10.587 14.0188ZM16.3023 15H15.3023V16H16.3023V15ZM16.3023 2.02V1.02H15.3023V2.02H16.3023ZM17.2223 2.02H18.2223V1.02H17.2223V2.02ZM17.2223 15V16H18.2223V15H17.2223ZM17.3023 15V2.02H15.3023V15H17.3023ZM16.3023 3.02H17.2223V1.02H16.3023V3.02ZM16.2223 2.02V15H18.2223V2.02H16.2223ZM17.2223 14H16.3023V16H17.2223V14ZM22.025 15H21.025V16H22.025V15ZM22.025 1.94V0.939999H21.025V1.94H22.025ZM22.465 1.94L23.2197 1.2839L22.9207 0.939999H22.465V1.94ZM30.985 11.74L30.2303 12.3961L30.236 12.4026L30.985 11.74ZM31.825 12.78L31.0176 13.37L31.0305 13.3876L31.0441 13.4047L31.825 12.78ZM32.245 13.3L31.5379 14.0071L33.4683 15.9375L33.2415 13.217L32.245 13.3ZM32.205 2.02V1.02H31.205V2.02H32.205ZM33.125 2.02H34.125V1.02H33.125V2.02ZM33.125 15.08V16.08H34.125V15.08H33.125ZM32.685 15.08L31.9311 15.737L32.23 16.08H32.685V15.08ZM24.005 5.12L23.2321 5.75449L23.2414 5.76589L23.2511 5.777L24.005 5.12ZM22.905 3.78L23.6779 3.14551L21.5811 0.59123L21.91 3.8795L22.905 3.78ZM22.945 15V16H23.945V15H22.945ZM23.025 15V1.94H21.025V15H23.025ZM22.025 2.94H22.465V0.939999H22.025V2.94ZM21.7103 2.5961L30.2303 12.3961L31.7397 11.0839L23.2197 1.2839L21.7103 2.5961ZM30.236 12.4026C30.5237 12.7278 30.784 13.0503 31.0176 13.37L32.6324 12.19C32.3594 11.8164 32.0597 11.4456 31.734 11.0774L30.236 12.4026ZM31.0441 13.4047C31.1777 13.5717 31.2806 13.6998 31.3521 13.7883C31.3876 13.8324 31.4167 13.8682 31.4385 13.8947C31.4492 13.9077 31.46 13.9208 31.4698 13.9324C31.4745 13.938 31.4811 13.9457 31.4884 13.9541C31.4907 13.9567 31.5113 13.9805 31.5379 14.0071L32.9521 12.5929C32.9676 12.6083 32.9789 12.6207 32.9827 12.625C32.9879 12.6306 32.9917 12.635 32.9936 12.6371C32.9973 12.6413 32.9992 12.6437 32.9984 12.6426C32.9969 12.6409 32.9925 12.6356 32.984 12.6253C32.9674 12.6051 32.9424 12.5743 32.9079 12.5317C32.8394 12.4468 32.7389 12.3216 32.6059 12.1553L31.0441 13.4047ZM33.2415 13.217C33.2189 12.945 33.205 12.3593 33.205 11.42H31.205C31.205 12.3474 31.2178 13.015 31.2485 13.383L33.2415 13.217ZM33.205 11.42V2.02H31.205V11.42H33.205ZM32.205 3.02H33.125V1.02H32.205V3.02ZM32.125 2.02V15.08H34.125V2.02H32.125ZM33.125 14.08H32.685V16.08H33.125V14.08ZM33.4389 14.423L24.7589 4.463L23.2511 5.777L31.9311 15.737L33.4389 14.423ZM24.7779 4.48551L23.6779 3.14551L22.1321 4.41449L23.2321 5.75449L24.7779 4.48551ZM21.91 3.8795C21.9306 4.08603 21.945 4.65752 21.945 5.66H23.945C23.945 4.68914 23.9327 4.0073 23.9 3.6805L21.91 3.8795ZM21.945 5.66V15H23.945V5.66H21.945ZM22.945 14H22.025V16H22.945V14ZM37.9234 15H36.9234V16H37.9234V15ZM37.9234 1.94V0.939999H36.9234V1.94H37.9234ZM38.3634 1.94L39.1181 1.2839L38.8191 0.939999H38.3634V1.94ZM46.8834 11.74L46.1287 12.3961L46.1344 12.4026L46.8834 11.74ZM47.7234 12.78L46.916 13.37L46.9289 13.3876L46.9426 13.4047L47.7234 12.78ZM48.1434 13.3L47.4363 14.0071L49.3667 15.9375L49.14 13.217L48.1434 13.3ZM48.1034 2.02V1.02H47.1034V2.02H48.1034ZM49.0234 2.02H50.0234V1.02H49.0234V2.02ZM49.0234 15.08V16.08H50.0234V15.08H49.0234ZM48.5834 15.08L47.8296 15.737L48.1285 16.08H48.5834V15.08ZM39.9034 5.12L39.1305 5.75449L39.1399 5.76589L39.1496 5.777L39.9034 5.12ZM38.8034 3.78L39.5764 3.14551L37.4796 0.59123L37.8084 3.8795L38.8034 3.78ZM38.8434 15V16H39.8434V15H38.8434ZM38.9234 15V1.94H36.9234V15H38.9234ZM37.9234 2.94H38.3634V0.939999H37.9234V2.94ZM37.6088 2.5961L46.1288 12.3961L47.6381 11.0839L39.1181 1.2839L37.6088 2.5961ZM46.1344 12.4026C46.4221 12.7278 46.6824 13.0503 46.916 13.37L48.5308 12.19C48.2578 11.8164 47.9581 11.4456 47.6324 11.0774L46.1344 12.4026ZM46.9426 13.4047C47.0762 13.5717 47.179 13.6998 47.2505 13.7883C47.286 13.8324 47.3152 13.8682 47.337 13.8947C47.3476 13.9077 47.3584 13.9208 47.3682 13.9324C47.373 13.938 47.3795 13.9457 47.3869 13.9541C47.3892 13.9567 47.4097 13.9805 47.4363 14.0071L48.8506 12.5929C48.866 12.6083 48.8773 12.6207 48.8812 12.625C48.8863 12.6306 48.8902 12.635 48.892 12.6371C48.8957 12.6413 48.8977 12.6437 48.8968 12.6426C48.8953 12.6409 48.8909 12.6356 48.8824 12.6253C48.8659 12.6051 48.8408 12.5743 48.8064 12.5317C48.7379 12.4468 48.6374 12.3216 48.5043 12.1553L46.9426 13.4047ZM49.14 13.217C49.1173 12.945 49.1034 12.3593 49.1034 11.42H47.1034C47.1034 12.3474 47.1162 13.015 47.1469 13.383L49.14 13.217ZM49.1034 11.42V2.02H47.1034V11.42H49.1034ZM48.1034 3.02H49.0234V1.02H48.1034V3.02ZM48.0234 2.02V15.08H50.0234V2.02H48.0234ZM49.0234 14.08H48.5834V16.08H49.0234V14.08ZM49.3373 14.423L40.6573 4.463L39.1496 5.777L47.8296 15.737L49.3373 14.423ZM40.6764 4.48551L39.5764 3.14551L38.0305 4.41449L39.1305 5.75449L40.6764 4.48551ZM37.8084 3.8795C37.8291 4.08603 37.8434 4.65752 37.8434 5.66H39.8434C39.8434 4.68914 39.8312 4.0073 39.7985 3.6805L37.8084 3.8795ZM37.8434 5.66V15H39.8434V5.66H37.8434ZM38.8434 14H37.9234V16H38.8434V14ZM53.8219 15H52.8219V16H53.8219V15ZM53.8219 2.02V1.02H52.8219V2.02H53.8219ZM59.8819 2.02H60.8819V1.02H59.8819V2.02ZM59.8819 2.82V3.82H60.8819V2.82H59.8819ZM54.7419 2.82V1.82H53.7419V2.82H54.7419ZM54.7419 7.54H53.7419V8.54H54.7419V7.54ZM59.3819 7.54H60.3819V6.54H59.3819V7.54ZM59.3819 8.32V9.32H60.3819V8.32H59.3819ZM54.7419 8.32V7.32H53.7419V8.32H54.7419ZM54.7419 14.16H53.7419V15.16H54.7419V14.16ZM60.0819 14.16H61.0819V13.16H60.0819V14.16ZM60.0819 15V16H61.0819V15H60.0819ZM54.8219 15V2.02H52.8219V15H54.8219ZM53.8219 3.02H59.8819V1.02H53.8219V3.02ZM58.8819 2.02V2.82H60.8819V2.02H58.8819ZM59.8819 1.82H54.7419V3.82H59.8819V1.82ZM53.7419 2.82V7.54H55.7419V2.82H53.7419ZM54.7419 8.54H59.3819V6.54H54.7419V8.54ZM58.3819 7.54V8.32H60.3819V7.54H58.3819ZM59.3819 7.32H54.7419V9.32H59.3819V7.32ZM53.7419 8.32V14.16H55.7419V8.32H53.7419ZM54.7419 15.16H60.0819V13.16H54.7419V15.16ZM59.0819 14.16V15H61.0819V14.16H59.0819ZM60.0819 14H53.8219V16H60.0819V14ZM70.7633 14.26V15.26H71.3998L71.6692 14.6834L70.7633 14.26ZM70.2233 14.26L69.299 14.6418L69.5544 15.26H70.2233V14.26ZM66.0433 4.14L66.9676 3.75821L66.9624 3.74608L66.0433 4.14ZM65.4633 2.66L66.409 2.33492L64.4718 2.52954L65.4633 2.66ZM65.2633 4.18L66.252 4.32986L66.2535 4.32017L66.2547 4.31045L65.2633 4.18ZM63.6233 15V16H64.4831L64.612 15.1499L63.6233 15ZM62.6433 15L61.6564 14.8385L61.4663 16H62.6433V15ZM65.0033 0.58V-0.42H64.1536L64.0164 0.418487L65.0033 0.58ZM65.5633 0.58L66.485 0.192176L66.2274 -0.42H65.5633V0.58ZM70.0233 11.18L69.1015 11.5678L69.1078 11.5828L69.1146 11.5975L70.0233 11.18ZM70.5633 12.58L69.6063 12.87L70.6139 16.1951L71.528 12.8431L70.5633 12.58ZM71.1833 11.2L72.0839 11.6348L72.0887 11.6246L71.1833 11.2ZM76.1633 0.58V-0.42H75.5277L75.2579 0.155435L76.1633 0.58ZM76.7033 0.58L77.692 0.430519L77.5635 -0.42H76.7033V0.58ZM78.8833 15V16H80.0458L79.872 14.8505L78.8833 15ZM77.8833 15L76.8934 15.1422L77.0167 16H77.8833V15ZM76.3233 4.14L77.3132 3.9978L77.3112 3.98503L76.3233 4.14ZM76.1633 2.6H77.1633V0.185786L75.4562 1.89289L76.1633 2.6ZM76.0633 2.8L75.1495 2.39386L75.1374 2.42103L75.127 2.44888L76.0633 2.8ZM75.8233 3.36L74.9114 2.94964L74.9064 2.96073L74.9016 2.97194L75.8233 3.36ZM75.4833 4.16L76.3892 4.58338L76.3961 4.56875L76.4024 4.55392L75.4833 4.16ZM70.7633 13.26H70.2233V15.26H70.7633V13.26ZM71.1475 13.8782L66.9675 3.75824L65.119 4.52176L69.299 14.6418L71.1475 13.8782ZM66.9624 3.74608C66.729 3.20144 66.5454 2.73189 66.409 2.33492L64.5176 2.98508C64.6745 3.44144 64.8776 3.95856 65.1241 4.53392L66.9624 3.74608ZM64.4718 2.52954L64.2718 4.04955L66.2547 4.31045L66.4547 2.79045L64.4718 2.52954ZM64.2746 4.03014L62.6346 14.8501L64.612 15.1499L66.252 4.32986L64.2746 4.03014ZM63.6233 14H62.6433V16H63.6233V14ZM63.6301 15.1615L65.9902 0.741513L64.0164 0.418487L61.6564 14.8385L63.6301 15.1615ZM65.0033 1.58H65.5633V-0.42H65.0033V1.58ZM64.6415 0.967824L69.1015 11.5678L70.945 10.7922L66.485 0.192176L64.6415 0.967824ZM69.1146 11.5975C69.3256 12.0567 69.4882 12.4805 69.6063 12.87L71.5203 12.29C71.3717 11.7995 71.1743 11.29 70.932 10.7625L69.1146 11.5975ZM71.528 12.8431C71.5236 12.8596 71.5493 12.7822 71.6605 12.5348C71.7583 12.317 71.8988 12.018 72.0838 11.6347L70.2827 10.7653C70.0944 11.1553 69.9449 11.473 69.8361 11.7152C69.7406 11.9278 69.643 12.1538 69.5985 12.3169L71.528 12.8431ZM72.0887 11.6246L77.0687 1.00456L75.2579 0.155435L70.2779 10.7754L72.0887 11.6246ZM76.1633 1.58H76.7033V-0.42H76.1633V1.58ZM75.7145 0.72948L77.8945 15.1495L79.872 14.8505L77.692 0.430519L75.7145 0.72948ZM78.8833 14H77.8833V16H78.8833V14ZM78.8731 14.8578L77.3131 3.99781L75.3334 4.28219L76.8934 15.1422L78.8731 14.8578ZM77.3112 3.98503C77.2064 3.3167 77.1633 2.86605 77.1633 2.6H75.1633C75.1633 3.02728 75.2269 3.6033 75.3354 4.29497L77.3112 3.98503ZM75.4562 1.89289C75.3513 1.99781 75.2902 2.10844 75.2858 2.11613C75.2646 2.15234 75.2468 2.18694 75.2339 2.21279C75.2072 2.26611 75.1784 2.32871 75.1495 2.39386L76.9771 3.20614C77.0015 3.15129 77.016 3.12056 77.0227 3.10721C77.0265 3.09973 77.0228 3.10766 77.0133 3.12387C77.0086 3.13198 76.9976 3.15038 76.9814 3.17403C76.973 3.18622 76.9606 3.20355 76.9446 3.22383C76.9294 3.24306 76.9044 3.27306 76.8704 3.30711L75.4562 1.89289ZM75.127 2.44888C75.0996 2.52182 75.032 2.68156 74.9114 2.94964L76.7352 3.77036C76.8546 3.5051 76.947 3.29151 76.9996 3.15112L75.127 2.44888ZM74.9016 2.97194C74.7959 3.22312 74.6834 3.48783 74.5641 3.76608L76.4024 4.55392C76.5232 4.27217 76.6373 4.00354 76.7449 3.74806L74.9016 2.97194ZM74.5773 3.73662L69.8573 13.8366L71.6692 14.6834L76.3892 4.58338L74.5773 3.73662ZM83.2119 10.5V9.5H82.5432L82.2877 10.118L83.2119 10.5ZM81.3519 15V16H82.0206L82.276 15.382L81.3519 15ZM80.4119 15L79.4888 14.6155L78.912 16H80.4119V15ZM85.8519 1.94V0.939999H85.1851L84.9288 1.55548L85.8519 1.94ZM86.3919 1.94L87.314 1.55308L87.0567 0.939999H86.3919V1.94ZM91.8719 15V16H93.3759L92.794 14.6131L91.8719 15ZM90.8519 15L89.9292 15.3855L90.1859 16H90.8519V15ZM88.9719 10.5L89.8946 10.1145L89.6379 9.5H88.9719V10.5ZM86.0719 3.42L87.0157 3.08965L86.0488 0.326962L85.1232 3.10377L86.0719 3.42ZM85.5319 4.92L86.4549 5.30462L86.4577 5.29802L86.4604 5.29139L85.5319 4.92ZM83.5319 9.72L82.6088 9.33538L82.0319 10.72H83.5319V9.72ZM88.6519 9.72V10.72H90.1485L89.5758 9.33731L88.6519 9.72ZM86.6719 4.94L85.7468 5.31992L85.748 5.32269L86.6719 4.94ZM82.2877 10.118L80.4277 14.618L82.276 15.382L84.136 10.882L82.2877 10.118ZM81.3519 14H80.4119V16H81.3519V14ZM81.335 15.3845L86.775 2.32451L84.9288 1.55548L79.4888 14.6155L81.335 15.3845ZM85.8519 2.94H86.3919V0.939999H85.8519V2.94ZM85.4698 2.32692L90.9498 15.3869L92.794 14.6131L87.314 1.55308L85.4698 2.32692ZM91.8719 14H90.8519V16H91.8719V14ZM91.7746 14.6145L89.8946 10.1145L88.0492 10.8855L89.9292 15.3855L91.7746 14.6145ZM88.9719 9.5H83.2119V11.5H88.9719V9.5ZM85.1232 3.10377C84.9268 3.69291 84.7536 4.17304 84.6034 4.54861L86.4604 5.29139C86.6301 4.86696 86.8169 4.34709 87.0206 3.73623L85.1232 3.10377ZM84.6088 4.53538L82.6088 9.33538L84.4549 10.1046L86.4549 5.30462L84.6088 4.53538ZM83.5319 10.72H88.6519V8.72H83.5319V10.72ZM89.5758 9.33731L87.5957 4.55731L85.748 5.32269L87.728 10.1027L89.5758 9.33731ZM87.5969 4.56008C87.2889 3.81022 87.099 3.32742 87.0157 3.08965L85.128 3.75035C85.2315 4.04591 85.4415 4.57645 85.7469 5.31992L87.5969 4.56008Z" fill="#657AEF"/>
</svg>
